<?xml version="1.0" encoding="UTF-8"?><svg id="a" xmlns="http://www.w3.org/2000/svg" viewBox="0 0 40 60"><defs><style>.b{fill:#fff;}</style></defs><path class="b" d="M20,37.24c-4,0-7.24-3.24-7.24-7.24s3.24-7.24,7.24-7.24,7.24,3.24,7.24,7.24-3.24,7.24-7.24,7.24Zm0-12.06c-2.66,0-4.82,2.16-4.82,4.82s2.16,4.82,4.82,4.82,4.82-2.16,4.82-4.82-2.16-4.82-4.82-4.82Z"/><path class="b" d="M21.21,49.29h-2.41c-2,0-3.62-1.62-3.62-3.62h0v-2.05c-.48-.17-.94-.36-1.4-.58l-1.45,1.45c-1.44,1.35-3.69,1.34-5.11-.02l-1.69-1.69c-1.41-1.41-1.41-3.7,0-5.11l1.45-1.45c-.23-.46-.43-.92-.6-1.4h-2.05c-2,0-3.62-1.62-3.62-3.62v-2.41c0-2,1.62-3.62,3.62-3.62h2.05c.17-.48,.36-.94,.58-1.4l-1.42-1.45c-1.41-1.41-1.41-3.7,0-5.11l1.69-1.69c1.43-1.36,3.68-1.36,5.11,0l1.45,1.45c.46-.23,.92-.43,1.4-.6v-2.05c0-2,1.62-3.62,3.62-3.62h2.41c2,0,3.62,1.62,3.62,3.62v2.05c.48,.17,.94,.36,1.4,.58l1.45-1.45c1.44-1.35,3.69-1.34,5.11,.02l1.69,1.69c1.41,1.41,1.41,3.7,0,5.11l-1.45,1.45c.22,.46,.41,.92,.58,1.4h2.05c2-.01,3.63,1.6,3.64,3.59v2.44c0,2-1.62,3.62-3.62,3.62h-2.05c-.17,.48-.36,.94-.58,1.4l1.45,1.45c1.41,1.41,1.41,3.7,0,5.11l-1.71,1.69c-1.43,1.36-3.68,1.36-5.11,0l-1.45-1.45c-.46,.22-.92,.41-1.4,.58v2.05c.01,2-1.6,3.63-3.59,3.64h-.02Zm-7.89-9.21l.8,.43c.82,.45,1.68,.81,2.58,1.06l.87,.24v3.86c0,.67,.54,1.21,1.21,1.21h2.41c.67,0,1.21-.54,1.21-1.21v-3.83l.87-.24c.9-.25,1.76-.61,2.58-1.06l.8-.43,2.7,2.7c.48,.46,1.24,.46,1.71,0l1.71-1.71c.47-.47,.48-1.23,0-1.71h0l-2.7-2.71,.43-.8c.45-.82,.81-1.68,1.06-2.58l.24-.87h3.88c.67,0,1.21-.54,1.21-1.21v-2.41c0-.67-.54-1.21-1.21-1.21h-3.83l-.24-.87c-.25-.9-.61-1.76-1.06-2.58l-.43-.8,2.68-2.75c.47-.47,.48-1.23,0-1.71h0l-1.69-1.7c-.48-.46-1.24-.46-1.71,0l-2.7,2.7-.8-.43c-.82-.45-1.68-.81-2.58-1.06l-.89-.27v-3.83c0-.67-.54-1.21-1.21-1.21h-2.41c-.67,0-1.21,.54-1.21,1.21v3.83l-.87,.24c-.9,.25-1.76,.61-2.58,1.06l-.8,.43-2.73-2.68c-.48-.46-1.24-.46-1.71,0l-1.69,1.69c-.47,.47-.48,1.23,0,1.71h0l2.7,2.71-.43,.8c-.45,.82-.81,1.68-1.06,2.58l-.27,.89h-3.83c-.67,0-1.21,.54-1.21,1.21v2.41c0,.67,.54,1.21,1.21,1.21h3.83l.24,.87c.25,.9,.61,1.76,1.06,2.58l.43,.8-2.68,2.73c-.47,.47-.48,1.23,0,1.71h0l1.71,1.72c.48,.46,1.24,.46,1.71,0l2.68-2.73Z"/></svg>