<?xml version="1.0" encoding="UTF-8"?><svg id="a" xmlns="http://www.w3.org/2000/svg" viewBox="0 0 40 60"><defs><style>.f{fill:none;stroke:#fff;stroke-linecap:round;stroke-linejoin:round;stroke-width:1.56px;}</style></defs><path id="b" class="f" d="M38.41,27.77c.54,.54,.61,1.4,.16,2.02-.31,.43-.67,.93-1,1.39-.27,.37-.68,.61-1.14,.64-.46,.04-.91-.13-1.23-.45-3.89-3.89-15.2-15.2-15.2-15.2,0,0-11.31,11.31-15.2,15.2-.32,.32-.77,.49-1.23,.45-.46-.04-.87-.27-1.14-.64-.33-.46-.69-.96-1-1.39-.45-.62-.38-1.48,.16-2.02L20,9.35s14.54,14.54,18.41,18.41h0Z"/><path id="c" class="f" d="M5.92,30.24l14.08-14.08,14.08,14.08v15.62c0,.47-.19,.91-.52,1.24-.33,.33-.78,.52-1.24,.52H7.68c-.47,0-.91-.19-1.24-.52-.33-.33-.52-.78-.52-1.24v-15.62h0Z"/><path id="d" class="f" d="M11.2,18.15l-6.16,6.16V15.07h6.16v3.08Z"/><path id="e" class="f" d="M23.9,37.86c0-.31-.12-.61-.34-.83-.22-.22-.52-.34-.83-.34h-5.47c-.31,0-.61,.12-.83,.34-.22,.22-.34,.52-.34,.83v9.76h7.81v-9.76Z"/></svg>